$MeshFormat
4.1 0 8
$EndMeshFormat
$PhysicalNames
6
2 4 "Top"
2 5 "Bottom"
2 6 "Sides"
3 1 "Underburden"
3 2 "Salt"
3 3 "Overburden"
$EndPhysicalNames
$Entities
16 28 16 3
1 0 0 -90 0 
2 0 0 -60 0 
3 0 100 -60 0 
4 0 100 -90 0 
5 100 0 -90 0 
6 100 0 -60 0 
7 100 100 -60 0 
8 100 100 -90 0 
9 0 0 -30 0 
10 0 100 -30 0 
11 100 0 -30 0 
12 100 100 -30 0 
13 0 0 0 0 
14 0 100 0 0 
15 100 0 0 0 
16 100 100 0 0 
1 -1e-07 -1e-07 -90.00000009999999 1e-07 1e-07 -59.9999999 0 2 1 -2 
2 -1e-07 -1.000000011686097e-07 -60.0000001 1e-07 100.0000001 -59.9999999 0 2 2 -3 
3 -1e-07 99.99999990000001 -90.00000009999999 1e-07 100.0000001 -59.9999999 0 2 4 -3 
4 -1e-07 -1.000000011686097e-07 -90.00000009999999 1e-07 100.0000001 -89.99999990000001 0 2 1 -4 
5 99.99999990000001 -1e-07 -90.00000009999999 100.0000001 1e-07 -59.9999999 0 2 5 -6 
6 99.99999990000001 -1.000000011686097e-07 -60.0000001 100.0000001 100.0000001 -59.9999999 0 2 6 -7 
7 99.99999990000001 99.99999990000001 -90.00000009999999 100.0000001 100.0000001 -59.9999999 0 2 8 -7 
8 99.99999990000001 -1.000000011686097e-07 -90.00000009999999 100.0000001 100.0000001 -89.99999990000001 0 2 5 -8 
9 -1.000000011686097e-07 -1e-07 -90.00000009999999 100.0000001 1e-07 -89.99999990000001 0 2 1 -5 
10 -1.000000011686097e-07 -1e-07 -60.0000001 100.0000001 1e-07 -59.9999999 0 2 2 -6 
11 -1.000000011686097e-07 99.99999990000001 -90.00000009999999 100.0000001 100.0000001 -89.99999990000001 0 2 4 -8 
12 -1.000000011686097e-07 99.99999990000001 -60.0000001 100.0000001 100.0000001 -59.9999999 0 2 3 -7 
13 -1e-07 -1e-07 -60.0000001 1e-07 1e-07 -29.9999999 0 2 2 -9 
14 -1e-07 -1.000000011686097e-07 -30.0000001 1e-07 100.0000001 -29.9999999 0 2 9 -10 
15 -1e-07 99.99999990000001 -60.0000001 1e-07 100.0000001 -29.9999999 0 2 3 -10 
16 99.99999990000001 -1e-07 -60.0000001 100.0000001 1e-07 -29.9999999 0 2 6 -11 
17 99.99999990000001 -1.000000011686097e-07 -30.0000001 100.0000001 100.0000001 -29.9999999 0 2 11 -12 
18 99.99999990000001 99.99999990000001 -60.0000001 100.0000001 100.0000001 -29.9999999 0 2 7 -12 
19 -1.000000011686097e-07 -1e-07 -30.0000001 100.0000001 1e-07 -29.9999999 0 2 9 -11 
20 -1.000000011686097e-07 99.99999990000001 -30.0000001 100.0000001 100.0000001 -29.9999999 0 2 10 -12 
21 -1e-07 -1e-07 -30.0000001 1e-07 1e-07 9.99999993922529e-08 0 2 9 -13 
22 -1e-07 -1.000000011686097e-07 -1e-07 1e-07 100.0000001 1e-07 0 2 13 -14 
23 -1e-07 99.99999990000001 -30.0000001 1e-07 100.0000001 9.99999993922529e-08 0 2 10 -14 
24 99.99999990000001 -1e-07 -30.0000001 100.0000001 1e-07 9.99999993922529e-08 0 2 11 -15 
25 99.99999990000001 -1.000000011686097e-07 -1e-07 100.0000001 100.0000001 1e-07 0 2 15 -16 
26 99.99999990000001 99.99999990000001 -30.0000001 100.0000001 100.0000001 9.99999993922529e-08 0 2 12 -16 
27 -1.000000011686097e-07 -1e-07 -1e-07 100.0000001 1e-07 1e-07 0 2 13 -15 
28 -1.000000011686097e-07 99.99999990000001 -1e-07 100.0000001 100.0000001 1e-07 0 2 14 -16 
1 -1e-07 -1.000000011686097e-07 -90.00000009999999 1e-07 100.0000001 -59.9999999 1 6 4 -1 4 3 -2 
2 99.99999990000001 -1.000000011686097e-07 -90.00000009999999 100.0000001 100.0000001 -59.9999999 1 6 4 -5 8 7 -6 
3 -1.000000011686097e-07 -1e-07 -90.00000009999999 100.0000001 1e-07 -59.9999999 1 6 4 -9 1 10 -5 
4 -1.000000011686097e-07 99.99999990000001 -90.00000009999999 100.0000001 100.0000001 -59.9999999 1 6 4 -11 3 12 -7 
5 -1.000000011686097e-07 -1.000000011686097e-07 -90.00000009999999 100.0000001 100.0000001 -89.99999990000001 1 5 4 -4 9 8 -11 
6 -1.000000011686097e-07 -1.000000011686097e-07 -60.0000001 100.0000001 100.0000001 -59.9999999 0 4 -2 10 6 -12 
7 -1e-07 -1.000000011686097e-07 -60.0000001 1e-07 100.0000001 -29.9999999 1 6 4 -13 2 15 -14 
8 99.99999990000001 -1.000000011686097e-07 -60.0000001 100.0000001 100.0000001 -29.9999999 1 6 4 -16 6 18 -17 
9 -1.000000011686097e-07 -1e-07 -60.0000001 100.0000001 1e-07 -29.9999999 1 6 4 -10 13 19 -16 
10 -1.000000011686097e-07 99.99999990000001 -60.0000001 100.0000001 100.0000001 -29.9999999 1 6 4 -12 15 20 -18 
11 -1.000000011686097e-07 -1.000000011686097e-07 -30.0000001 100.0000001 100.0000001 -29.9999999 0 4 -14 19 17 -20 
12 -1e-07 -1.000000011686097e-07 -30.0000001 1e-07 100.0000001 9.99999993922529e-08 1 6 4 -21 14 23 -22 
13 99.99999990000001 -1.000000011686097e-07 -30.0000001 100.0000001 100.0000001 9.99999993922529e-08 1 6 4 -24 17 26 -25 
14 -1.000000011686097e-07 -1e-07 -30.0000001 100.0000001 1e-07 9.99999993922529e-08 1 6 4 -19 21 27 -24 
15 -1.000000011686097e-07 99.99999990000001 -30.0000001 100.0000001 100.0000001 9.99999993922529e-08 1 6 4 -20 23 28 -26 
16 -1.000000011686097e-07 -1.000000011686097e-07 -1e-07 100.0000001 100.0000001 1e-07 1 4 4 -22 27 25 -28 
1 -1.000000011686097e-07 -1.000000011686097e-07 -90.00000009999999 100.0000001 100.0000001 -59.9999999 1 1 6 -1 2 -3 4 -5 6 
2 -1.000000011686097e-07 -1.000000011686097e-07 -60.0000001 100.0000001 100.0000001 -29.9999999 1 2 6 -7 8 -9 10 -6 11 
3 -1.000000011686097e-07 -1.000000011686097e-07 -30.0000001 100.0000001 100.0000001 9.99999993922529e-08 1 3 6 -12 13 -14 15 -11 16 
$EndEntities
$Nodes
63 350 1 350
0 1 0 1
1
0 0 -90
0 2 0 1
2
0 0 -60
0 3 0 1
3
0 100 -60
0 4 0 1
4
0 100 -90
0 5 0 1
5
100 0 -90
0 6 0 1
6
100 0 -60
0 7 0 1
7
100 100 -60
0 8 0 1
8
100 100 -90
0 9 0 1
9
0 0 -30
0 10 0 1
10
0 100 -30
0 11 0 1
11
100 0 -30
0 12 0 1
12
100 100 -30
0 13 0 1
13
0 0 0
0 14 0 1
14
0 100 0
0 15 0 1
15
100 0 0
0 16 0 1
16
100 100 0
1 1 0 1
17
0 0 -74.99999999999999
1 2 0 5
18
19
20
21
22
0 16.66666666666665 -60
0 33.33333333333326 -60
0 49.99999999999986 -60
0 66.66666666666647 -60
0 83.33333333333324 -60
1 3 0 1
23
0 100 -74.99999999999999
1 4 0 5
24
25
26
27
28
0 16.66666666666665 -90
0 33.33333333333326 -90
0 49.99999999999986 -90
0 66.66666666666647 -90
0 83.33333333333324 -90
1 5 0 1
29
100 0 -74.99999999999999
1 6 0 5
30
31
32
33
34
100 16.66666666666665 -60
100 33.33333333333326 -60
100 49.99999999999986 -60
100 66.66666666666647 -60
100 83.33333333333324 -60
1 7 0 1
35
100 100 -74.99999999999999
1 8 0 5
36
37
38
39
40
100 16.66666666666665 -90
100 33.33333333333326 -90
100 49.99999999999986 -90
100 66.66666666666647 -90
100 83.33333333333324 -90
1 9 0 5
41
42
43
44
45
16.66666666666665 0 -90
33.33333333333326 0 -90
49.99999999999986 0 -90
66.66666666666647 0 -90
83.33333333333324 0 -90
1 10 0 5
46
47
48
49
50
16.66666666666665 0 -60
33.33333333333326 0 -60
49.99999999999986 0 -60
66.66666666666647 0 -60
83.33333333333324 0 -60
1 11 0 5
51
52
53
54
55
16.66666666666665 100 -90
33.33333333333326 100 -90
49.99999999999986 100 -90
66.66666666666647 100 -90
83.33333333333324 100 -90
1 12 0 5
56
57
58
59
60
16.66666666666665 100 -60
33.33333333333326 100 -60
49.99999999999986 100 -60
66.66666666666647 100 -60
83.33333333333324 100 -60
1 13 0 1
61
0 0 -44.99999999999999
1 14 0 5
62
63
64
65
66
0 16.66666666666665 -30
0 33.33333333333326 -30
0 49.99999999999986 -30
0 66.66666666666647 -30
0 83.33333333333324 -30
1 15 0 1
67
0 100 -44.99999999999999
1 16 0 1
68
100 0 -44.99999999999999
1 17 0 5
69
70
71
72
73
100 16.66666666666665 -30
100 33.33333333333326 -30
100 49.99999999999986 -30
100 66.66666666666647 -30
100 83.33333333333324 -30
1 18 0 1
74
100 100 -44.99999999999999
1 19 0 5
75
76
77
78
79
16.66666666666665 0 -30
33.33333333333326 0 -30
49.99999999999986 0 -30
66.66666666666647 0 -30
83.33333333333324 0 -30
1 20 0 5
80
81
82
83
84
16.66666666666665 100 -30
33.33333333333326 100 -30
49.99999999999986 100 -30
66.66666666666647 100 -30
83.33333333333324 100 -30
1 21 0 1
85
0 0 -14.99999999999999
1 22 0 5
86
87
88
89
90
0 16.66666666666665 0
0 33.33333333333326 0
0 49.99999999999986 0
0 66.66666666666647 0
0 83.33333333333324 0
1 23 0 1
91
0 100 -14.99999999999999
1 24 0 1
92
100 0 -14.99999999999999
1 25 0 5
93
94
95
96
97
100 16.66666666666665 0
100 33.33333333333326 0
100 49.99999999999986 0
100 66.66666666666647 0
100 83.33333333333324 0
1 26 0 1
98
100 100 -14.99999999999999
1 27 0 5
99
100
101
102
103
16.66666666666665 0 0
33.33333333333326 0 0
49.99999999999986 0 0
66.66666666666647 0 0
83.33333333333324 0 0
1 28 0 5
104
105
106
107
108
16.66666666666665 100 0
33.33333333333326 100 0
49.99999999999986 100 0
66.66666666666647 100 0
83.33333333333324 100 0
2 1 0 8
109
110
111
112
113
114
115
116
0 23.21399361410841 -74.40845713196474
0 58.33333333333319 -74.81895623331842
0 76.78600638589143 -75.64657136854639
0 41.36899893568463 -74.87123556088052
0 88.93094858932793 -71.40207953385476
0 11.069051410672 -78.60353561925865
0 8.964359017000469 -68.266180229681
0 91.03564098299952 -81.73823986169104
2 2 0 8
117
118
119
120
121
122
123
124
100 23.21399361410841 -74.40845713196474
100 58.33333333333319 -74.81895623331842
100 76.78600638589143 -75.64657136854639
100 41.36899893568463 -74.87123556088052
100 88.93094858932793 -71.40207953385476
100 11.069051410672 -78.60353561925865
100 8.964359017000469 -68.266180229681
100 91.03564098299952 -81.73823986169104
2 3 0 8
125
126
127
128
129
130
131
132
23.21399361410841 0 -75.59154286803526
58.33333333333319 0 -75.18104376668158
76.78600638589143 0 -74.35342863145361
41.36899893568463 0 -75.12876443911948
88.93094858932795 0 -78.59792046614524
11.06905141067199 0 -71.39646438074135
8.964359017000458 0 -81.73381977031899
91.03564098299952 0 -68.26176013830894
2 4 0 8
133
134
135
136
137
138
139
140
23.21399361410841 100 -75.59154286803526
58.33333333333319 100 -75.18104376668158
76.78600638589143 100 -74.35342863145361
41.36899893568463 100 -75.12876443911948
88.93094858932795 100 -78.59792046614524
11.06905141067199 100 -71.39646438074135
8.964359017000458 100 -81.73381977031899
91.03564098299952 100 -68.26176013830894
2 5 0 34
141
142
143
144
145
146
147
148
149
150
151
152
153
154
155
156
157
158
159
160
161
162
163
164
165
166
167
168
169
170
171
172
173
174
85.06173125074281 59.7787609117763 -90
14.9382687492571 59.77876091177629 -90
58.15109568340525 15.08426476087526 -90
58.33333333333317 85.56624327025941 -90
13.56302602983095 24.58798294733583 -90
25.07062282134789 85.88713258240283 -90
86.11620212026557 24.77062749977593 -90
74.92937717865186 85.88713258240283 -90
69.25646466622742 69.7528712446488 -90
50.43163299992668 70.9025506578738 -90
58.33333333333315 56.6987298107782 -90
42.22204468242283 56.38129342155496 -90
50.09256300262587 42.50635842210114 -90
66.66666666666643 42.2649730810376 -90
34.00905403382407 42.13699392000611 -90
44.04659175556336 28.35712984850789 -90
83.18012084636078 42.09213154057615 -90
16.87852027634296 42.03907139583833 -90
41.75037597021235 85.58140217517581 -90
30.89649537937651 69.67684076365566 -90
86.13549960618434 75.14957068082697 -90
13.88270992305416 75.14051943308968 -90
75.28831044824419 13.69493419813702 -90
24.1807230776599 13.13072671406493 -90
40.59952396911893 13.5163461222794 -90
58.25475961794455 31.53718094250965 -90
28.32075760009829 28.33193598962178 -90
71.27619256381446 28.24068533715193 -90
72.09936490538894 55.02404735808376 -90
27.78887662424469 54.00259208256627 -90
87.79915320718527 87.79915320718527 -90
87.79915320718541 12.20084679281457 -90
12.20084679281458 87.79915320718537 -90
12.11598774258425 12.11598774258425 -90
2 6 0 34
175
176
177
178
179
180
181
182
183
184
185
186
187
188
189
190
191
192
193
194
195
196
197
198
199
200
201
202
203
204
205
206
207
208
85.56624327025938 58.33333333333317 -60
15.08426476087526 58.15109568340523 -60
59.7787609117763 14.9382687492571 -60
59.77876091177627 85.06173125074281 -60
24.58798294733584 13.56302602983093 -60
24.77062749977593 86.11620212026556 -60
85.88713258240283 25.07062282134788 -60
85.88713258240278 74.92937717865192 -60
69.75287124464876 69.25646466622739 -60
70.9025506578738 50.43163299992666 -60
56.69872981077819 58.33333333333309 -60
56.38129342155498 42.22204468242279 -60
42.50635842210114 50.09256300262579 -60
42.26497308103757 66.66666666666634 -60
42.13699392000615 34.00905403382401 -60
28.35712984850791 44.04659175556328 -60
42.03907139583836 16.87852027634294 -60
42.09213154057613 83.18012084636075 -60
85.58140217517581 41.75037597021234 -60
69.67684076365568 30.8964953793765 -60
75.14957068082694 86.13549960618434 -60
13.69493419813702 75.28831044824419 -60
75.14051943308968 13.88270992305415 -60
13.13072671406494 24.18072307765988 -60
13.51634612227943 40.59952396911892 -60
31.53718094250965 58.25475961794447 -60
28.33193598962184 28.32075760009822 -60
28.24068533715192 71.27619256381442 -60
55.02404735808371 72.0993649053889 -60
54.0025920825663 27.78887662424467 -60
87.79915320718541 12.20084679281457 -60
87.79915320718533 87.79915320718533 -60
12.20084679281457 87.79915320718538 -60
12.11598774258425 12.11598774258425 -60
2 7 0 7
209
210
211
212
213
214
215
0 23.21139808066509 -44.40396153616815
0 58.33030521098264 -45.00162109460088
0 74.29433481026328 -45.46675851279109
0 41.36806165971899 -44.90093043846151
0 11.06878656032064 -48.6030768849937
0 87.4357036505977 -47.79892998214563
0 8.9641505342166 -38.26581912690683
2 8 0 7
216
217
218
219
220
221
222
100 23.21139808066509 -44.40396153616815
100 58.33030521098264 -45.00162109460088
100 74.29433481026328 -45.46675851279109
100 41.36806165971899 -44.90093043846151
100 11.06878656032064 -48.6030768849937
100 87.4357036505977 -47.79892998214563
100 8.9641505342166 -38.26581912690683
2 9 0 8
223
224
225
226
227
228
229
230
23.21399361410841 0 -45.59154286803526
58.33333333333319 0 -45.18104376668158
76.78600638589143 0 -44.35342863145361
41.36899893568463 0 -45.12876443911948
88.93094858932795 0 -48.59792046614524
11.06905141067199 0 -41.39646438074135
8.964359017000458 0 -51.73381977031899
91.03564098299952 0 -38.26176013830895
2 10 0 8
231
232
233
234
235
236
237
238
23.21399361410841 100 -45.59154286803526
58.33333333333319 100 -45.18104376668158
76.78600638589143 100 -44.35342863145361
41.36899893568463 100 -45.12876443911948
88.93094858932795 100 -48.59792046614524
11.06905141067199 100 -41.39646438074135
8.964359017000458 100 -51.73381977031899
91.03564098299952 100 -38.26176013830895
2 11 0 34
239
240
241
242
243
244
245
246
247
248
249
250
251
252
253
254
255
256
257
258
259
260
261
262
263
264
265
266
267
268
269
270
271
272
59.77876091177627 85.06173125074281 -30
59.7787609117763 14.9382687492571 -30
15.08426476087526 58.15109568340523 -30
85.56624327025938 58.33333333333317 -30
24.58798294733584 13.56302602983094 -30
24.77062749977593 86.11620212026556 -30
85.88713258240283 25.07062282134789 -30
85.88713258240278 74.92937717865192 -30
69.75287124464877 69.25646466622739 -30
70.9025506578738 50.43163299992666 -30
56.69872981077819 58.33333333333309 -30
56.38129342155498 42.22204468242279 -30
42.50635842210114 50.09256300262579 -30
42.26497308103757 66.66666666666634 -30
42.13699392000615 34.00905403382401 -30
28.35712984850792 44.04659175556328 -30
42.03907139583836 16.87852027634294 -30
42.09213154057614 83.18012084636077 -30
85.58140217517581 41.75037597021235 -30
69.67684076365566 30.8964953793765 -30
75.14957068082694 86.13549960618434 -30
75.14051943308968 13.88270992305416 -30
13.69493419813702 75.28831044824419 -30
13.13072671406495 24.18072307765988 -30
13.51634612227943 40.59952396911892 -30
31.53718094250965 58.25475961794447 -30
28.33193598962184 28.32075760009823 -30
28.24068533715192 71.27619256381442 -30
55.02404735808375 72.0993649053889 -30
54.00259208256629 27.78887662424466 -30
87.7991532071854 12.20084679281458 -30
87.79915320718533 87.79915320718533 -30
12.20084679281457 87.79915320718538 -30
12.11598774258425 12.11598774258425 -30
2 12 0 7
273
274
275
276
277
278
279
0 25.70302837962534 -14.44537820780382
0 58.33030521098264 -15.00524486176267
0 76.78557379698421 -15.67318402975271
0 41.78333337621236 -14.90843717826108
0 88.9309044476027 -11.40479511152888
0 12.56967234518894 -12.20704334650624
0 91.03560623586887 -21.7403774884316
2 13 0 6
280
281
282
283
284
285
100 25.70605650197588 -14.44699930240469
100 58.33333333333319 -15.18804984460357
100 74.29483949732172 -15.49782997112487
100 41.78434275032922 -14.93917485783471
100 12.56967234518894 -12.20704334650624
100 87.4357036505977 -17.79892998214563
2 14 0 6
286
287
288
289
290
291
25.70605650197588 0 -15.55300069759531
58.33333333333319 0 -14.81195015539643
74.29483949732172 0 -14.50217002887513
41.78434275032922 0 -15.06082514216529
12.56967234518894 0 -17.79295665349376
87.4357036505977 0 -12.20107001785437
2 15 0 6
292
293
294
295
296
297
25.70605650197588 100 -15.55300069759531
58.33333333333319 100 -14.81195015539643
74.29483949732172 100 -14.50217002887513
41.78434275032922 100 -15.06082514216529
12.56967234518894 100 -17.79295665349376
87.4357036505977 100 -12.20107001785437
2 16 0 34
298
299
300
301
302
303
304
305
306
307
308
309
310
311
312
313
314
315
316
317
318
319
320
321
322
323
324
325
326
327
328
329
330
331
59.77876091177627 85.06173125074281 0
59.7787609117763 14.9382687492571 0
15.08426476087526 58.15109568340523 0
85.56624327025938 58.33333333333317 0
24.58798294733584 13.56302602983094 0
24.77062749977593 86.11620212026556 0
85.88713258240283 25.07062282134789 0
85.88713258240278 74.92937717865192 0
69.75287124464877 69.25646466622739 0
70.9025506578738 50.43163299992666 0
56.69872981077819 58.33333333333309 0
56.38129342155498 42.22204468242279 0
42.50635842210114 50.09256300262579 0
42.26497308103757 66.66666666666634 0
42.13699392000615 34.00905403382401 0
28.35712984850792 44.04659175556328 0
42.03907139583836 16.87852027634294 0
42.09213154057614 83.18012084636077 0
85.58140217517581 41.75037597021235 0
69.67684076365566 30.8964953793765 0
75.14957068082694 86.13549960618434 0
75.14051943308968 13.88270992305416 0
13.69493419813702 75.28831044824419 0
13.13072671406495 24.18072307765988 0
13.51634612227943 40.59952396911892 0
31.53718094250965 58.25475961794447 0
28.33193598962184 28.32075760009823 0
28.24068533715192 71.27619256381442 0
55.02404735808375 72.0993649053889 0
54.00259208256629 27.78887662424466 0
87.7991532071854 12.20084679281458 0
87.79915320718533 87.79915320718533 0
12.20084679281457 87.79915320718538 0
12.11598774258425 12.11598774258425 0
3 1 0 5
332
333
334
335
336
51.29616694447499 51.29616694447508 -75.00000000000003
34.41364323020128 50.66859970852778 -74.81965300449652
50.66859970852799 34.41364323020137 -75.18034699550346
17.71971196153795 17.71971196153793 -75
76.28039898309282 76.47168685291591 -74.93013047702583
3 2 0 7
337
338
339
340
341
342
343
47.14294772225527 58.44889991662134 -45
50.61769261058152 35.75933360018411 -45
19.09620125288973 32.25454409757747 -45
61.71672433671169 49.06992029793111 -45
37.19197564664887 74.87120070332897 -45
76.95342516097232 75.52695194910129 -45.10580751496303
23.3458473996151 52.62817066833878 -45
3 3 0 7
344
345
346
347
348
349
350
47.14294772225526 58.44889991662133 -15
50.61769261058151 35.75933360018411 -15
19.09620125288973 32.25454409757748 -15
66.00785235577436 50.00105388603143 -13.86764708248663
37.19197564664886 74.87120070332895 -15
77.159333629421 75.82322288543932 -15.01065654063759
23.3458473996151 52.62817066833878 -15
$EndNodes
$Elements
17 1740 1 1740
2 1 2 30
1 1 17 114 
2 24 1 114 
3 17 2 115 
4 2 18 115 
5 22 3 113 
6 3 23 113 
7 23 4 116 
8 4 28 116 
9 114 17 115 
10 18 19 109 
11 18 109 115 
12 19 20 112 
13 109 19 112 
14 20 21 110 
15 20 110 112 
16 21 22 111 
17 110 21 111 
18 111 22 113 
19 113 23 116 
20 25 24 109 
21 109 24 114 
22 26 25 112 
23 25 109 112 
24 27 26 110 
25 110 26 112 
26 28 27 111 
27 27 110 111 
28 28 111 116 
29 109 114 115 
30 111 113 116 
2 2 2 30
31 5 122 29 
32 36 122 5 
33 29 123 6 
34 6 123 30 
35 34 121 7 
36 7 121 35 
37 35 124 8 
38 8 124 40 
39 122 123 29 
40 30 117 31 
41 30 123 117 
42 31 120 32 
43 117 120 31 
44 32 118 33 
45 32 120 118 
46 33 119 34 
47 118 119 33 
48 119 121 34 
49 121 124 35 
50 37 117 36 
51 117 122 36 
52 38 120 37 
53 37 120 117 
54 39 118 38 
55 118 120 38 
56 40 119 39 
57 39 119 118 
58 40 124 119 
59 117 123 122 
60 119 124 121 
2 3 2 30
61 17 1 131 
62 1 41 131 
63 2 17 130 
64 46 2 130 
65 5 29 129 
66 45 5 129 
67 29 6 132 
68 6 50 132 
69 130 17 131 
70 129 29 132 
71 41 42 125 
72 41 125 131 
73 42 43 128 
74 125 42 128 
75 43 44 126 
76 43 126 128 
77 44 45 127 
78 126 44 127 
79 127 45 129 
80 47 46 125 
81 125 46 130 
82 48 47 128 
83 47 125 128 
84 49 48 126 
85 126 48 128 
86 50 49 127 
87 49 126 127 
88 50 127 132 
89 125 130 131 
90 127 129 132 
2 4 2 30
91 3 138 23 
92 56 138 3 
93 23 139 4 
94 4 139 51 
95 35 140 7 
96 7 140 60 
97 8 137 35 
98 55 137 8 
99 138 139 23 
100 137 140 35 
101 51 133 52 
102 51 139 133 
103 52 136 53 
104 133 136 52 
105 53 134 54 
106 53 136 134 
107 54 135 55 
108 134 135 54 
109 135 137 55 
110 57 133 56 
111 133 138 56 
112 58 136 57 
113 57 136 133 
114 59 134 58 
115 134 136 58 
116 60 135 59 
117 59 135 134 
118 60 140 135 
119 133 139 138 
120 135 140 137 
2 5 2 90
121 1 24 174 
122 41 1 174 
123 28 4 173 
124 4 51 173 
125 36 5 172 
126 5 45 172 
127 8 40 171 
128 55 8 171 
129 24 25 145 
130 24 145 174 
131 25 26 158 
132 145 25 158 
133 26 27 142 
134 26 142 158 
135 27 28 162 
136 142 27 162 
137 162 28 173 
138 37 36 147 
139 147 36 172 
140 38 37 157 
141 37 147 157 
142 39 38 141 
143 141 38 157 
144 40 39 161 
145 39 141 161 
146 40 161 171 
147 42 41 164 
148 164 41 174 
149 43 42 165 
150 42 164 165 
151 44 43 143 
152 143 43 165 
153 45 44 163 
154 44 143 163 
155 45 163 172 
156 51 52 146 
157 51 146 173 
158 52 53 159 
159 146 52 159 
160 53 54 144 
161 53 144 159 
162 54 55 148 
163 144 54 148 
164 148 55 171 
165 141 149 161 
166 149 141 169 
167 141 157 169 
168 158 142 170 
169 160 142 162 
170 142 160 170 
171 156 143 165 
172 143 156 166 
173 163 143 168 
174 143 166 168 
175 144 148 149 
176 144 149 150 
177 144 150 159 
178 145 158 167 
179 164 145 167 
180 145 164 174 
181 146 159 160 
182 146 160 162 
183 146 162 173 
184 157 147 168 
185 147 163 168 
186 163 147 172 
187 149 148 161 
188 161 148 171 
189 150 149 151 
190 151 149 169 
191 150 151 152 
192 150 152 160 
193 159 150 160 
194 152 151 153 
195 153 151 154 
196 154 151 169 
197 152 153 155 
198 152 155 170 
199 160 152 170 
200 153 154 166 
201 155 153 156 
202 156 153 166 
203 154 157 168 
204 157 154 169 
205 166 154 168 
206 155 156 167 
207 158 155 167 
208 155 158 170 
209 156 165 167 
210 165 164 167 
2 7 2 28
211 18 2 213 
212 2 61 213 
213 3 22 214 
214 67 3 214 
215 61 9 215 
216 9 62 215 
217 66 10 214 
218 10 67 214 
219 19 18 209 
220 209 18 213 
221 20 19 212 
222 19 209 212 
223 21 20 210 
224 210 20 212 
225 22 21 211 
226 21 210 211 
227 22 211 214 
228 213 61 215 
229 62 63 209 
230 62 209 215 
231 63 64 212 
232 209 63 212 
233 64 65 210 
234 64 210 212 
235 65 66 211 
236 210 65 211 
237 211 66 214 
238 209 213 215 
2 8 2 28
239 30 220 6 
240 6 220 68 
241 7 221 34 
242 74 221 7 
243 68 222 11 
244 11 222 69 
245 73 221 12 
246 12 221 74 
247 31 216 30 
248 216 220 30 
249 32 219 31 
250 31 219 216 
251 33 217 32 
252 217 219 32 
253 34 218 33 
254 33 218 217 
255 34 221 218 
256 220 222 68 
257 69 216 70 
258 69 222 216 
259 70 219 71 
260 216 219 70 
261 71 217 72 
262 71 219 217 
263 72 218 73 
264 217 218 72 
265 218 221 73 
266 216 222 220 
2 9 2 30
267 2 46 229 
268 61 2 229 
269 50 6 227 
270 6 68 227 
271 9 61 228 
272 75 9 228 
273 68 11 230 
274 11 79 230 
275 46 47 223 
276 46 223 229 
277 47 48 226 
278 223 47 226 
279 48 49 224 
280 48 224 226 
281 49 50 225 
282 224 49 225 
283 225 50 227 
284 228 61 229 
285 227 68 230 
286 76 75 223 
287 223 75 228 
288 77 76 226 
289 76 223 226 
290 78 77 224 
291 224 77 226 
292 79 78 225 
293 78 224 225 
294 79 225 230 
295 223 228 229 
296 225 227 230 
2 10 2 30
297 3 237 56 
298 67 237 3 
299 60 235 7 
300 7 235 74 
301 10 236 67 
302 80 236 10 
303 74 238 12 
304 12 238 84 
305 56 231 57 
306 56 237 231 
307 57 234 58 
308 231 234 57 
309 58 232 59 
310 58 234 232 
311 59 233 60 
312 232 233 59 
313 233 235 60 
314 236 237 67 
315 235 238 74 
316 81 231 80 
317 231 236 80 
318 82 234 81 
319 81 234 231 
320 83 232 82 
321 232 234 82 
322 84 233 83 
323 83 233 232 
324 84 238 233 
325 231 237 236 
326 233 238 235 
2 12 2 28
327 62 9 278 
328 9 85 278 
329 10 66 279 
330 91 10 279 
331 85 13 278 
332 13 86 278 
333 90 14 277 
334 14 91 277 
335 63 62 273 
336 273 62 278 
337 64 63 276 
338 63 273 276 
339 65 64 274 
340 274 64 276 
341 66 65 275 
342 65 274 275 
343 66 275 279 
344 86 87 273 
345 86 273 278 
346 87 88 276 
347 273 87 276 
348 88 89 274 
349 88 274 276 
350 89 90 275 
351 274 89 275 
352 275 90 277 
353 277 91 279 
354 275 277 279 
2 13 2 26
355 69 284 11 
356 11 284 92 
357 12 285 73 
358 98 285 12 
359 92 284 15 
360 15 284 93 
361 97 285 16 
362 16 285 98 
363 70 280 69 
364 280 284 69 
365 71 283 70 
366 70 283 280 
367 72 281 71 
368 281 283 71 
369 73 282 72 
370 72 282 281 
371 73 285 282 
372 93 280 94 
373 93 284 280 
374 94 283 95 
375 280 283 94 
376 95 281 96 
377 95 283 281 
378 96 282 97 
379 281 282 96 
380 282 285 97 
2 14 2 26
381 9 75 290 
382 85 9 290 
383 79 11 291 
384 11 92 291 
385 13 85 290 
386 99 13 290 
387 92 15 291 
388 15 103 291 
389 75 76 286 
390 75 286 290 
391 76 77 289 
392 286 76 289 
393 77 78 287 
394 77 287 289 
395 78 79 288 
396 287 78 288 
397 288 79 291 
398 100 99 286 
399 286 99 290 
400 101 100 289 
401 100 286 289 
402 102 101 287 
403 287 101 289 
404 103 102 288 
405 102 287 288 
406 103 288 291 
2 15 2 26
407 10 296 80 
408 91 296 10 
409 84 297 12 
410 12 297 98 
411 14 296 91 
412 104 296 14 
413 98 297 16 
414 16 297 108 
415 80 292 81 
416 80 296 292 
417 81 295 82 
418 292 295 81 
419 82 293 83 
420 82 295 293 
421 83 294 84 
422 293 294 83 
423 294 297 84 
424 105 292 104 
425 292 296 104 
426 106 295 105 
427 105 295 292 
428 107 293 106 
429 293 295 106 
430 108 294 107 
431 107 294 293 
432 108 297 294 
2 16 2 90
433 13 331 86 
434 99 331 13 
435 90 330 14 
436 14 330 104 
437 93 328 15 
438 15 328 103 
439 16 329 97 
440 108 329 16 
441 86 321 87 
442 86 331 321 
443 87 322 88 
444 321 322 87 
445 88 300 89 
446 88 322 300 
447 89 320 90 
448 300 320 89 
449 320 330 90 
450 94 304 93 
451 304 328 93 
452 95 316 94 
453 94 316 304 
454 96 301 95 
455 301 316 95 
456 97 305 96 
457 96 305 301 
458 97 329 305 
459 100 302 99 
460 302 331 99 
461 101 314 100 
462 100 314 302 
463 102 299 101 
464 299 314 101 
465 103 319 102 
466 102 319 299 
467 103 328 319 
468 104 303 105 
469 104 330 303 
470 105 315 106 
471 303 315 105 
472 106 298 107 
473 106 315 298 
474 107 318 108 
475 298 318 107 
476 318 329 108 
477 306 318 298 
478 298 326 306 
479 315 326 298 
480 299 327 314 
481 299 319 317 
482 317 327 299 
483 300 322 313 
484 313 323 300 
485 300 325 320 
486 323 325 300 
487 305 306 301 
488 306 307 301 
489 307 316 301 
490 314 324 302 
491 302 324 321 
492 321 331 302 
493 303 325 315 
494 320 325 303 
495 303 330 320 
496 316 317 304 
497 317 319 304 
498 319 328 304 
499 305 318 306 
500 305 329 318 
501 306 308 307 
502 306 326 308 
503 308 309 307 
504 309 317 307 
505 307 317 316 
506 308 310 309 
507 308 311 310 
508 308 326 311 
509 310 312 309 
510 312 327 309 
511 309 327 317 
512 311 323 310 
513 310 313 312 
514 310 323 313 
515 315 325 311 
516 311 326 315 
517 311 325 323 
518 313 324 312 
519 312 324 314 
520 314 327 312 
521 322 324 313 
522 321 324 322 
3 1 4 401
523 157 147 181 168 
524 163 147 205 172 
525 207 196 173 180 
526 142 162 196 202 
527 197 177 168 163 
528 180 196 162 202 
529 197 168 147 163 
530 162 146 180 202 
531 147 181 168 197 
532 205 197 147 163 
533 196 162 173 180 
534 147 181 197 205 
535 162 146 173 180 
536 194 157 181 168 
537 194 193 157 154 
538 186 332 154 334 
539 188 152 332 333 
540 159 192 188 150 
541 193 184 157 154 
542 181 193 157 194 
543 146 159 136 180 
544 168 143 177 334 
545 202 176 142 333 
546 189 201 333 334 
547 155 333 167 334 
548 143 168 177 163 
549 202 196 142 176 
550 160 159 188 150 
551 184 193 194 154 
552 168 177 194 334 
553 202 142 160 333 
554 154 194 186 334 
555 188 160 152 333 
556 141 175 169 157 
557 178 203 192 144 
558 191 167 165 335 
559 199 158 201 335 
560 154 157 194 168 
561 201 158 167 335 
562 167 191 201 335 
563 175 184 169 157 
564 144 203 192 150 
565 200 176 202 333 
566 168 166 143 334 
567 162 160 146 202 
568 181 194 168 197 
569 177 168 194 197 
570 162 142 160 202 
571 167 333 201 334 
572 163 205 127 172 
573 196 173 111 207 
574 184 169 157 154 
575 203 188 192 150 
576 147 181 205 117 
577 133 173 146 180 
578 192 136 159 180 
579 126 177 197 163 
580 142 162 110 196 
581 147 120 181 117 
582 146 136 133 180 
583 117 205 147 172 
584 173 133 207 180 
585 126 197 127 163 
586 110 162 111 196 
587 152 150 188 332 
588 184 154 186 332 
589 197 205 127 163 
590 111 162 173 196 
591 175 169 184 336 
592 143 191 177 334 
593 142 176 158 333 
594 203 150 144 336 
595 205 122 129 172 
596 138 113 173 207 
597 183 149 203 336 
598 175 141 169 336 
599 169 149 183 336 
600 191 143 165 334 
601 158 176 199 333 
602 144 178 203 336 
603 184 169 154 332 
604 203 188 150 332 
605 188 152 160 150 
606 184 194 186 154 
607 183 184 169 336 
608 177 126 143 163 
609 110 142 196 176 
610 191 165 128 335 
611 158 199 112 335 
612 203 149 150 336 
613 117 122 205 172 
614 133 138 173 207 
615 205 129 127 172 
616 113 111 173 207 
617 143 191 128 126 
618 110 112 158 176 
619 188 202 160 333 
620 168 194 154 334 
621 158 112 145 335 
622 179 191 128 335 
623 192 159 136 134 
624 118 157 120 193 
625 175 184 157 193 
626 192 159 144 150 
627 118 175 141 157 
628 134 178 192 144 
629 142 170 160 333 
630 194 177 204 334 
631 126 143 191 177 
632 142 110 158 176 
633 165 191 128 143 
634 199 158 112 176 
635 157 118 175 193 
636 192 159 134 144 
637 188 200 202 333 
638 168 154 166 334 
639 204 177 191 334 
640 170 142 158 333 
641 109 112 198 335 
642 125 128 164 335 
643 191 201 189 334 
644 155 158 167 333 
645 128 165 164 335 
646 199 198 112 335 
647 145 112 109 335 
648 179 128 125 335 
649 183 175 184 336 
650 144 150 149 336 
651 137 171 121 336 
652 206 137 121 336 
653 175 118 141 336 
654 165 167 164 335 
655 198 199 201 335 
656 167 158 145 335 
657 179 201 191 335 
658 144 134 178 336 
659 119 118 182 336 
660 182 118 175 336 
661 141 118 161 336 
662 161 118 119 336 
663 134 148 135 336 
664 144 148 134 336 
665 156 165 143 334 
666 199 176 190 333 
667 151 154 169 332 
668 203 185 188 332 
669 134 135 195 336 
670 195 178 134 336 
671 155 167 156 334 
672 201 190 189 333 
673 129 123 205 132 
674 139 116 173 113 
675 122 123 205 129 
676 113 173 139 138 
677 119 121 171 336 
678 206 135 137 336 
679 137 140 206 121 
680 137 121 171 124 
681 119 206 121 336 
682 135 171 137 336 
683 128 125 164 42 
684 112 158 26 110 
685 191 48 128 126 
686 157 38 118 120 
687 192 136 58 134 
688 138 173 139 133 
689 205 123 122 117 
690 205 129 132 127 
691 111 173 116 113 
692 206 135 140 137 
693 121 119 171 124 
694 164 128 42 165 
695 169 141 149 336 
696 58 178 192 134 
697 118 141 38 157 
698 110 158 26 142 
699 191 48 126 177 
700 143 128 43 126 
701 198 109 19 112 
702 39 119 161 118 
703 20 112 110 176 
704 161 141 39 118 
705 162 27 110 111 
706 146 136 52 133 
707 162 110 27 142 
708 178 183 203 336 
709 187 189 333 334 
710 153 333 155 334 
711 199 198 19 112 
712 143 128 165 43 
713 111 21 110 196 
714 44 126 127 163 
715 153 154 332 334 
716 187 188 332 333 
717 119 33 182 118 
718 134 54 135 148 
719 112 20 199 176 
720 119 182 206 336 
721 159 53 136 134 
722 135 195 59 134 
723 159 146 136 52 
724 171 135 148 336 
725 195 178 59 134 
726 332 333 153 334 
727 187 333 332 334 
728 192 57 136 180 
729 37 157 147 120 
730 126 197 49 127 
731 120 32 118 193 
732 158 25 145 112 
733 191 47 179 128 
734 181 120 31 117 
735 120 147 37 117 
736 57 133 136 180 
737 197 177 126 49 
738 196 21 110 176 
739 126 44 143 163 
740 109 145 25 112 
741 125 179 47 128 
742 33 175 182 118 
743 54 134 144 148 
744 193 120 31 181 
745 159 53 134 144 
746 171 161 119 336 
747 32 175 118 193 
748 135 206 195 336 
749 191 189 204 334 
750 158 155 170 333 
751 166 156 143 334 
752 200 190 176 333 
753 170 152 160 333 
754 194 204 186 334 
755 187 200 188 333 
756 153 166 154 334 
757 184 186 185 332 
758 150 152 151 332 
759 153 154 151 332 
760 188 185 187 332 
761 153 332 152 333 
762 187 332 186 334 
763 183 182 175 336 
764 144 149 148 336 
765 155 153 152 333 
766 189 187 186 334 
767 130 131 114 335 
768 130 114 115 335 
769 24 174 145 114 
770 208 130 179 46 
771 156 153 155 334 
772 190 187 189 333 
773 172 129 127 45 
774 135 137 171 55 
775 138 133 56 207 
776 117 36 122 172 
777 22 111 113 207 
778 121 34 206 119 
779 174 114 131 335 
780 130 115 208 335 
781 115 109 208 335 
782 125 174 131 335 
783 179 130 125 46 
784 109 24 145 114 
785 55 171 135 148 
786 141 161 149 336 
787 34 182 206 119 
788 127 163 172 45 
789 111 22 196 207 
790 109 198 208 335 
791 164 174 125 335 
792 133 56 207 180 
793 147 36 117 172 
794 178 195 183 336 
795 174 131 41 125 
796 115 114 109 335 
797 125 131 130 335 
798 51 139 173 133 
799 115 109 18 208 
800 173 116 28 111 
801 171 119 40 124 
802 123 205 30 117 
803 50 205 132 127 
804 135 60 206 140 
805 164 174 41 125 
806 173 146 51 133 
807 208 109 18 198 
808 205 181 30 117 
809 40 119 171 161 
810 173 28 162 111 
811 60 206 195 135 
812 148 161 171 336 
813 205 50 197 127 
814 182 195 206 336 
815 37 38 157 120 
816 192 136 57 58 
817 26 25 158 112 
818 47 191 48 128 
819 54 55 135 148 
820 34 33 182 119 
821 164 167 145 335 
822 198 201 179 335 
823 163 127 44 45 
824 186 187 185 332 
825 151 152 153 332 
826 111 22 21 196 
827 56 133 57 180 
828 147 36 37 117 
829 51 146 52 133 
830 141 38 39 118 
831 26 27 110 142 
832 129 122 5 172 
833 145 25 24 109 
834 46 125 179 47 
835 3 113 138 207 
836 136 53 159 52 
837 125 41 164 42 
838 119 40 39 161 
839 43 44 143 126 
840 28 27 162 111 
841 178 58 59 134 
842 31 30 181 117 
843 21 20 110 176 
844 177 48 126 49 
845 186 204 189 334 
846 152 170 155 333 
847 149 161 148 336 
848 120 31 32 193 
849 19 18 109 198 
850 134 53 54 144 
851 182 183 195 336 
852 195 59 60 135 
853 33 32 175 118 
854 128 42 165 43 
855 50 49 197 127 
856 116 139 23 113 
857 29 123 129 132 
858 171 8 137 124 
859 2 130 115 208 
860 1 131 174 114 
861 122 29 123 129 
862 113 139 23 138 
863 7 206 140 121 
864 199 19 20 112 
865 208 2 130 46 
866 174 24 1 114 
867 122 36 5 172 
868 5 129 172 45 
869 171 137 8 55 
870 3 138 56 207 
871 122 5 29 129 
872 206 7 34 121 
873 113 3 22 207 
874 23 3 113 138 
875 153 156 166 334 
876 187 190 200 333 
877 164 145 174 335 
878 208 198 179 335 
879 114 17 130 115 
880 130 131 17 114 
881 137 35 140 121 
882 121 137 35 124 
883 40 8 171 124 
884 116 28 4 173 
885 4 51 139 173 
886 41 1 131 174 
887 30 6 205 123 
888 115 18 2 208 
889 6 50 205 132 
890 7 206 60 140 
891 116 4 139 173 
892 123 6 205 132 
893 1 17 131 114 
894 130 17 2 115 
895 137 8 35 124 
896 140 35 7 121 
897 139 23 4 116 
898 123 29 6 132 
899 332 149 150 203 
900 332 150 149 151 
901 332 183 184 169 
902 332 184 183 185 
903 332 149 169 151 
904 332 169 149 183 
905 183 332 203 149 
906 203 332 183 185 
907 181 157 120 147 
908 181 120 157 193 
909 180 159 202 146 
910 180 202 159 192 
911 160 202 159 146 
912 333 201 158 167 
913 334 167 191 201 
914 199 333 201 158 
915 201 333 199 190 
916 334 165 167 156 
917 334 167 165 191 
918 145 114 335 109 
919 335 114 145 174 
920 130 179 335 208 
921 335 179 130 125 
922 202 159 188 160 
923 202 188 159 192 
3 2 4 414
924 181 258 260 245 
925 258 257 245 181 
926 194 181 260 197 
927 207 196 180 261 
928 271 207 180 261 
929 181 245 260 205 
930 269 260 245 205 
931 180 244 271 261 
932 267 203 183 337 
933 177 194 260 197 
934 179 191 201 243 
935 197 181 260 205 
936 257 258 193 181 
937 258 181 260 194 
938 194 260 240 177 
939 180 244 261 341 
940 181 258 193 194 
941 202 261 196 343 
942 203 267 239 341 
943 191 179 226 243 
944 243 201 179 339 
945 203 267 183 342 
946 265 243 191 255 
947 194 177 240 338 
948 219 245 257 181 
949 240 177 191 338 
950 268 240 255 338 
951 204 191 177 338 
952 258 260 240 194 
953 243 191 201 265 
954 240 191 255 338 
955 196 261 211 343 
956 265 255 191 338 
957 240 268 258 338 
958 204 177 194 338 
959 191 201 265 338 
960 267 183 247 337 
961 194 240 258 338 
962 243 226 191 255 
963 216 245 181 205 
964 245 216 269 205 
965 202 266 261 343 
966 203 239 267 342 
967 243 265 201 339 
968 239 178 203 341 
969 208 272 243 339 
970 245 219 216 181 
971 180 231 207 271 
972 179 223 226 243 
973 213 208 272 228 
974 269 225 260 205 
975 337 338 251 343 
976 187 338 337 343 
977 177 240 191 224 
978 193 219 257 181 
979 231 180 244 271 
980 247 183 267 342 
981 240 255 191 224 
982 202 261 266 341 
983 179 208 243 339 
984 179 208 223 243 
985 269 205 220 227 
986 249 267 247 337 
987 185 183 203 337 
988 247 337 183 340 
989 239 232 178 341 
990 184 175 242 193 
991 224 177 260 197 
992 184 242 257 193 
993 217 219 257 193 
994 197 260 225 205 
995 224 260 225 197 
996 253 255 265 338 
997 191 189 201 338 
998 208 213 272 209 
999 203 178 239 342 
1000 242 340 248 342 
1001 249 337 247 340 
1002 185 183 337 340 
1003 175 217 242 193 
1004 217 257 242 193 
1005 236 207 231 271 
1006 216 269 205 220 
1007 205 269 225 227 
1008 255 226 191 224 
1009 177 260 240 224 
1010 256 232 239 341 
1011 192 178 232 341 
1012 211 176 196 343 
1013 256 234 232 341 
1014 192 232 234 341 
1015 254 190 338 339 
1016 251 338 254 343 
1017 187 190 338 343 
1018 265 338 201 339 
1019 176 211 210 343 
1020 196 207 214 261 
1021 271 214 207 261 
1022 254 338 190 343 
1023 272 208 209 339 
1024 202 341 266 343 
1025 248 340 247 342 
1026 183 340 184 342 
1027 267 203 337 341 
1028 247 340 183 342 
1029 211 196 214 261 
1030 242 248 247 342 
1031 175 183 184 342 
1032 190 339 254 343 
1033 266 261 244 341 
1034 217 175 242 342 
1035 236 214 207 271 
1036 198 209 208 339 
1037 272 209 262 339 
1038 187 190 189 338 
1039 251 253 254 338 
1040 203 178 192 341 
1041 239 267 256 341 
1042 262 243 272 339 
1043 208 179 198 339 
1044 258 194 338 340 
1045 180 231 244 341 
1046 239 178 232 342 
1047 218 175 217 342 
1048 218 217 242 342 
1049 248 257 258 340 
1050 218 242 246 342 
1051 176 202 196 343 
1052 241 261 266 343 
1053 218 182 175 342 
1054 259 232 233 342 
1055 239 232 259 342 
1056 195 232 178 342 
1057 195 233 232 342 
1058 234 244 231 341 
1059 222 230 269 227 
1060 180 234 231 341 
1061 220 222 269 227 
1062 213 272 215 228 
1063 208 213 229 228 
1064 235 270 233 342 
1065 244 234 256 341 
1066 180 192 234 341 
1067 200 337 341 343 
1068 264 341 337 343 
1069 210 211 65 261 
1070 270 235 221 342 
1071 218 246 270 342 
1072 210 20 176 212 
1073 241 210 212 64 
1074 235 233 206 342 
1075 65 241 210 261 
1076 223 208 229 228 
1077 215 272 213 209 
1078 77 226 255 224 
1079 235 206 221 342 
1080 210 212 176 343 
1081 82 256 234 232 
1082 251 264 337 343 
1083 200 187 337 343 
1084 231 237 207 236 
1085 269 216 222 220 
1086 241 212 210 343 
1087 269 230 225 227 
1088 233 238 270 235 
1089 48 191 226 224 
1090 232 192 234 58 
1091 257 71 219 217 
1092 256 82 239 232 
1093 255 240 77 224 
1094 217 32 219 193 
1095 72 242 246 218 
1096 242 72 217 218 
1097 83 233 259 232 
1098 232 178 192 58 
1099 191 48 177 224 
1100 259 239 83 232 
1101 225 78 260 224 
1102 219 70 245 216 
1103 240 260 78 224 
1104 20 199 176 212 
1105 183 178 203 342 
1106 239 247 267 342 
1107 200 341 202 343 
1108 264 266 341 343 
1109 64 212 241 263 
1110 71 257 242 217 
1111 32 217 175 193 
1112 268 255 253 338 
1113 191 204 189 338 
1114 216 219 31 181 
1115 70 245 257 219 
1116 176 212 199 343 
1117 251 337 250 338 
1118 186 337 187 338 
1119 234 244 256 81 
1120 212 241 263 343 
1121 76 226 243 255 
1122 244 234 231 81 
1123 233 195 232 59 
1124 225 224 197 49 
1125 211 21 176 210 
1126 176 196 21 211 
1127 192 234 57 180 
1128 243 223 226 76 
1129 195 178 232 59 
1130 226 47 179 191 
1131 231 57 234 180 
1132 186 338 194 340 
1133 258 338 250 340 
1134 267 337 252 341 
1135 188 337 203 341 
1136 193 31 219 181 
1137 197 224 177 49 
1138 235 238 270 221 
1139 195 206 233 342 
1140 47 179 223 226 
1141 200 337 188 341 
1142 264 252 337 341 
1143 218 270 221 342 
1144 175 218 33 182 
1145 237 214 207 236 
1146 218 33 217 175 
1147 259 233 270 342 
1148 250 338 337 340 
1149 337 338 186 340 
1150 212 339 199 343 
1151 212 263 339 343 
1152 221 206 182 342 
1153 248 249 247 340 
1154 185 184 183 340 
1155 218 221 182 342 
1156 258 268 250 338 
1157 194 186 204 338 
1158 249 250 251 337 
1159 187 186 185 337 
1160 209 63 262 339 
1161 251 254 264 343 
1162 200 190 187 343 
1163 209 198 19 339 
1164 247 246 242 342 
1165 182 183 175 342 
1166 212 63 209 339 
1167 250 337 249 340 
1168 185 337 186 340 
1169 246 270 73 218 
1170 209 19 212 339 
1171 201 198 179 339 
1172 262 265 243 339 
1173 176 200 202 343 
1174 241 266 264 343 
1175 243 75 272 228 
1176 262 63 263 339 
1177 212 263 63 339 
1178 225 50 205 227 
1179 206 233 235 60 
1180 205 30 216 220 
1181 271 231 236 80 
1182 248 258 250 340 
1183 184 186 194 340 
1184 199 19 198 339 
1185 256 267 252 341 
1186 188 203 192 341 
1187 199 212 19 339 
1188 75 243 223 228 
1189 181 30 216 205 
1190 264 266 252 341 
1191 200 188 202 341 
1192 251 250 253 338 
1193 189 186 187 338 
1194 195 233 206 60 
1195 244 231 271 80 
1196 239 259 247 342 
1197 195 178 183 342 
1198 50 197 225 205 
1199 200 187 188 337 
1200 264 252 251 337 
1201 270 73 218 221 
1202 188 185 203 337 
1203 267 249 252 337 
1204 223 229 208 46 
1205 237 207 56 231 
1206 271 236 214 66 
1207 10 236 271 66 
1208 62 272 215 209 
1209 231 207 56 180 
1210 269 222 216 69 
1211 79 230 225 269 
1212 238 270 84 233 
1213 179 223 208 46 
1214 67 10 214 236 
1215 272 62 262 209 
1216 187 185 188 337 
1217 252 249 251 337 
1218 269 216 245 69 
1219 81 256 234 82 
1220 246 259 270 342 
1221 182 206 195 342 
1222 255 76 226 77 
1223 263 254 339 343 
1224 199 339 190 343 
1225 244 256 266 341 
1226 192 180 202 341 
1227 210 241 65 64 
1228 57 234 192 58 
1229 191 226 47 48 
1230 72 246 73 218 
1231 221 34 182 206 
1232 216 31 30 181 
1233 233 270 84 259 
1234 182 218 34 221 
1235 79 225 260 269 
1236 72 71 242 217 
1237 19 18 198 209 
1238 211 65 261 66 
1239 21 20 176 210 
1240 233 195 59 60 
1241 73 270 238 221 
1242 49 197 225 50 
1243 231 244 81 80 
1244 239 82 83 232 
1245 22 196 214 211 
1246 240 78 77 224 
1247 22 196 207 214 
1248 12 238 74 221 
1249 236 10 214 66 
1250 220 205 6 227 
1251 34 33 218 182 
1252 223 243 75 76 
1253 217 33 32 175 
1254 71 70 257 219 
1255 196 22 21 211 
1256 216 70 245 69 
1257 32 31 219 193 
1258 58 232 178 59 
1259 48 177 224 49 
1260 263 241 254 343 
1261 176 199 190 343 
1262 57 231 56 180 
1263 182 195 183 342 
1264 246 247 259 342 
1265 198 201 199 339 
1266 263 265 262 339 
1267 212 64 63 263 
1268 204 186 189 338 
1269 253 250 268 338 
1270 62 262 209 63 
1271 83 233 84 259 
1272 260 78 225 79 
1273 230 222 68 227 
1274 266 256 252 341 
1275 192 202 188 341 
1276 213 2 208 229 
1277 20 19 199 212 
1278 46 179 223 47 
1279 264 254 241 343 
1280 190 200 176 343 
1281 238 12 73 221 
1282 220 68 222 227 
1283 201 190 199 339 
1284 254 265 263 339 
1285 185 186 184 340 
1286 248 250 249 340 
1287 208 18 2 213 
1288 6 30 205 220 
1289 205 50 6 227 
1290 221 235 7 206 
1291 206 235 7 60 
1292 220 6 68 227 
1293 270 12 73 238 
1294 61 213 215 228 
1295 213 61 229 228 
1296 214 207 3 237 
1297 7 74 235 221 
1298 2 208 229 46 
1299 235 74 238 221 
1300 207 56 3 237 
1301 215 272 9 228 
1302 221 7 34 206 
1303 207 3 22 214 
1304 271 236 10 80 
1305 272 75 9 228 
1306 214 237 67 236 
1307 2 213 61 229 
1308 3 214 237 67 
1309 230 11 222 269 
1310 270 84 12 238 
1311 11 230 79 269 
1312 11 222 269 69 
1313 9 62 272 215 
1314 215 9 61 228 
1315 222 68 11 230 
1316 202 261 180 196 
1317 180 261 202 341 
1318 194 184 258 193 
1319 194 258 184 340 
1320 257 258 184 193 
1321 257 184 258 340 
1322 242 184 342 175 
1323 342 184 242 340 
1324 340 242 257 184 
1325 340 257 242 248 
1326 338 201 190 189 
1327 338 190 201 339 
1328 265 338 254 253 
1329 265 254 338 339 
1330 210 261 343 211 
1331 343 261 210 241 
1332 261 214 66 271 
1333 261 66 214 211 
1334 208 209 18 213 
1335 18 209 208 198 
1336 228 243 208 272 
1337 228 208 243 223 
3 3 4 403
1338 317 319 245 304 
1339 304 245 317 316 
1340 319 260 258 245 
1341 320 261 271 303 
1342 320 271 330 303 
1343 328 245 319 304 
1344 269 245 260 328 
1345 244 271 261 303 
1346 267 247 326 344 
1347 260 240 319 258 
1348 302 243 265 255 
1349 245 319 260 328 
1350 245 257 258 316 
1351 317 319 258 245 
1352 319 299 317 240 
1353 245 258 317 316 
1354 302 243 255 286 
1355 266 320 261 350 
1356 298 267 326 348 
1357 304 280 245 316 
1358 302 265 243 346 
1359 267 326 247 349 
1360 314 255 302 324 
1361 299 317 240 345 
1362 299 240 255 345 
1363 255 240 268 345 
1364 327 299 314 345 
1365 317 319 240 258 
1366 255 265 302 324 
1367 314 299 255 345 
1368 320 274 261 350 
1369 255 324 314 345 
1370 268 240 258 345 
1371 299 327 317 345 
1372 265 324 255 345 
1373 326 247 306 344 
1374 317 258 240 345 
1375 286 255 302 314 
1376 287 255 299 240 
1377 320 275 261 274 
1378 314 289 255 287 
1379 299 314 255 287 
1380 325 320 266 350 
1381 298 326 267 349 
1382 255 286 289 314 
1383 293 239 298 348 
1384 275 261 271 320 
1385 265 302 324 346 
1386 301 281 283 242 
1387 239 267 298 348 
1388 330 275 271 320 
1389 316 258 317 347 
1390 331 302 272 346 
1391 257 245 280 316 
1392 319 288 240 260 
1393 344 345 310 350 
1394 251 345 344 350 
1395 256 293 295 348 
1396 315 295 293 348 
1397 306 247 326 349 
1398 320 325 266 348 
1399 243 272 302 346 
1400 267 249 247 344 
1401 308 326 306 344 
1402 306 344 247 347 
1403 293 256 239 348 
1404 248 301 316 242 
1405 315 293 298 348 
1406 316 257 248 242 
1407 316 280 257 283 
1408 299 319 288 240 
1409 255 253 265 345 
1410 314 324 312 345 
1411 267 239 298 349 
1412 301 347 307 349 
1413 247 344 249 347 
1414 308 344 306 347 
1415 301 283 316 242 
1416 257 316 283 242 
1417 271 277 275 330 
1418 300 274 320 350 
1419 261 274 241 350 
1420 254 345 313 346 
1421 288 287 299 240 
1422 328 284 245 304 
1423 245 269 284 328 
1424 310 345 313 350 
1425 251 254 345 350 
1426 265 324 345 346 
1427 254 313 345 350 
1428 290 331 302 272 
1429 330 271 296 303 
1430 266 348 325 350 
1431 291 269 260 328 
1432 271 244 296 303 
1433 307 347 306 349 
1434 248 247 347 349 
1435 326 267 344 348 
1436 243 290 302 272 
1437 247 306 347 349 
1438 291 260 319 328 
1439 280 245 284 304 
1440 301 307 306 349 
1441 248 242 247 349 
1442 254 346 313 350 
1443 320 303 325 348 
1444 296 244 292 303 
1445 319 288 260 291 
1446 278 331 272 346 
1447 281 242 301 349 
1448 277 271 296 330 
1449 243 302 290 286 
1450 312 313 310 345 
1451 251 254 253 345 
1452 298 326 315 348 
1453 239 256 267 348 
1454 298 239 293 349 
1455 331 321 302 346 
1456 262 272 243 346 
1457 244 292 303 348 
1458 258 345 317 347 
1459 307 316 317 347 
1460 282 281 301 349 
1461 282 242 281 349 
1462 301 305 282 349 
1463 325 300 320 350 
1464 241 266 261 350 
1465 293 239 294 349 
1466 298 293 294 349 
1467 246 242 282 349 
1468 295 303 292 348 
1469 278 321 331 346 
1470 244 295 292 348 
1471 315 303 295 348 
1472 239 259 294 349 
1473 256 295 244 348 
1474 331 290 278 272 
1475 318 298 294 349 
1476 291 284 269 328 
1477 287 289 255 77 
1478 293 256 295 82 
1479 344 348 264 350 
1480 323 348 344 350 
1481 101 289 314 287 
1482 295 106 315 293 
1483 273 321 278 346 
1484 329 282 305 349 
1485 293 256 82 239 
1486 240 287 255 77 
1487 242 283 71 281 
1488 298 315 106 293 
1489 314 299 101 287 
1490 283 95 281 301 
1491 270 294 259 349 
1492 105 292 295 303 
1493 264 251 344 350 
1494 310 323 344 350 
1495 292 244 81 295 
1496 277 279 271 275 
1497 276 274 241 64 
1498 65 261 275 274 
1499 315 105 295 303 
1500 88 274 300 276 
1501 244 256 81 295 
1502 282 96 305 301 
1503 241 274 276 350 
1504 96 282 281 301 
1505 300 276 274 350 
1506 257 245 70 280 
1507 70 257 280 283 
1508 261 65 241 274 
1509 64 241 276 263 
1510 300 88 276 322 
1511 267 247 239 349 
1512 298 306 326 349 
1513 264 348 266 350 
1514 325 348 323 350 
1515 320 275 274 89 
1516 283 242 71 257 
1517 241 276 263 350 
1518 253 255 268 345 
1519 312 327 314 345 
1520 322 276 300 350 
1521 95 283 316 301 
1522 251 250 344 345 
1523 310 344 309 345 
1524 242 246 282 72 
1525 94 280 304 316 
1526 94 280 316 283 
1527 274 300 320 89 
1528 282 281 242 72 
1529 317 345 309 347 
1530 258 250 345 347 
1531 252 344 267 348 
1532 326 344 311 348 
1533 83 294 293 239 
1534 240 288 287 78 
1535 311 344 323 348 
1536 264 344 252 348 
1537 239 83 294 259 
1538 329 285 282 349 
1539 270 297 294 349 
1540 271 296 279 277 
1541 288 240 260 78 
1542 294 293 298 107 
1543 287 299 102 288 
1544 276 346 263 350 
1545 322 346 276 350 
1546 344 345 250 347 
1547 309 345 344 347 
1548 294 298 318 107 
1549 299 319 102 288 
1550 270 246 285 349 
1551 249 248 247 347 
1552 307 308 306 347 
1553 297 285 329 349 
1554 297 270 285 349 
1555 285 246 282 349 
1556 297 329 318 349 
1557 268 258 250 345 
1558 309 317 327 345 
1559 250 249 251 344 
1560 310 308 309 344 
1561 318 294 297 349 
1562 273 276 87 346 
1563 276 273 63 346 
1564 310 313 323 350 
1565 264 254 251 350 
1566 87 321 273 346 
1567 63 273 262 346 
1568 273 62 262 272 
1569 247 242 246 349 
1570 305 301 306 349 
1571 249 344 250 347 
1572 308 309 344 347 
1573 322 87 276 346 
1574 97 282 305 329 
1575 321 324 302 346 
1576 243 265 262 346 
1577 276 63 263 346 
1578 241 264 266 350 
1579 323 300 325 350 
1580 294 84 270 259 
1581 87 322 321 346 
1582 63 262 263 346 
1583 277 275 330 90 
1584 258 248 250 347 
1585 317 309 307 347 
1586 252 267 256 348 
1587 326 311 315 348 
1588 264 252 266 348 
1589 311 323 325 348 
1590 320 330 275 90 
1591 312 310 309 345 
1592 251 253 250 345 
1593 298 318 306 349 
1594 239 247 259 349 
1595 264 251 252 344 
1596 310 323 311 344 
1597 62 273 278 272 
1598 329 97 282 285 
1599 84 297 294 270 
1600 308 311 326 344 
1601 267 252 249 344 
1602 296 277 330 104 
1603 330 277 14 104 
1604 105 295 106 315 
1605 314 100 289 101 
1606 279 66 271 275 
1607 256 81 295 82 
1608 76 255 289 77 
1609 91 296 14 277 
1610 269 284 291 92 
1611 251 249 252 344 
1612 311 308 310 344 
1613 305 318 329 349 
1614 259 246 270 349 
1615 263 346 254 350 
1616 313 346 322 350 
1617 303 315 325 348 
1618 256 244 266 348 
1619 297 12 98 270 
1620 285 329 16 98 
1621 291 11 269 92 
1622 284 269 11 92 
1623 85 331 13 290 
1624 85 9 278 272 
1625 66 261 271 275 
1626 96 282 305 97 
1627 284 328 93 304 
1628 69 70 245 280 
1629 82 83 293 239 
1630 280 284 93 304 
1631 287 240 78 77 
1632 106 298 293 107 
1633 95 96 281 301 
1634 299 102 101 287 
1635 297 98 285 270 
1636 98 285 329 297 
1637 93 94 280 304 
1638 275 320 90 89 
1639 278 290 85 272 
1640 290 85 331 278 
1641 283 316 94 95 
1642 257 70 71 283 
1643 274 65 241 64 
1644 262 62 273 63 
1645 270 73 285 246 
1646 242 281 71 72 
1647 84 294 83 259 
1648 78 260 288 79 
1649 73 282 285 246 
1650 80 271 244 296 
1651 12 285 98 270 
1652 98 329 16 297 
1653 318 294 107 108 
1654 329 318 108 297 
1655 296 244 80 292 
1656 103 291 319 328 
1657 318 294 108 297 
1658 319 102 288 103 
1659 9 85 290 272 
1660 85 13 331 278 
1661 291 319 288 103 
1662 273 87 86 321 
1663 277 296 14 104 
1664 246 73 282 72 
1665 89 274 300 88 
1666 292 105 104 303 
1667 88 276 322 87 
1668 63 64 276 263 
1669 75 290 243 272 
1670 75 243 290 286 
1671 86 273 321 278 
1672 84 12 297 270 
1673 16 97 329 285 
1674 269 79 11 291 
1675 69 269 11 284 
1676 62 278 9 272 
1677 331 99 13 290 
1678 331 86 321 278 
1679 302 99 286 100 
1680 244 81 80 292 
1681 241 263 254 350 
1682 300 313 322 350 
1683 305 306 318 349 
1684 247 246 259 349 
1685 321 322 324 346 
1686 262 265 263 346 
1687 309 327 312 345 
1688 250 253 268 345 
1689 65 261 66 275 
1690 243 75 76 286 
1691 266 252 256 348 
1692 315 311 325 348 
1693 241 254 264 350 
1694 300 323 313 350 
1695 324 322 313 346 
1696 254 263 265 346 
1697 249 250 248 347 
1698 308 307 309 347 
1699 15 284 291 328 
1700 15 284 328 93 
1701 103 15 291 328 
1702 291 284 15 92 
1703 330 14 277 90 
1704 296 91 279 277 
1705 296 10 271 279 
1706 80 10 271 296 
1707 329 108 16 297 
1708 13 86 331 278 
1709 75 9 290 272 
1710 285 12 73 270 
1711 66 271 10 279 
1712 10 296 91 279 
1713 244 266 303 261 
1714 244 303 266 348 
1715 320 303 266 261 
1716 320 266 303 348 
1717 248 316 258 257 
1718 248 258 316 347 
1719 301 248 349 242 
1720 301 349 248 347 
1721 347 301 316 248 
1722 347 316 301 307 
1723 345 265 254 253 
1724 345 254 265 346 
1725 324 345 313 312 
1726 313 345 324 346 
1727 286 314 100 289 
1728 100 314 286 302 
1729 286 255 76 243 
1730 286 76 255 289 
1731 284 245 69 269 
1732 284 69 245 280 
1733 260 291 79 269 
1734 79 291 260 288 
1735 303 296 104 292 
1736 303 104 296 330 
1737 302 290 99 331 
1738 302 99 290 286 
1739 272 273 346 262 
1740 272 346 273 278 
$EndElements
